<svg width="40" height="40" viewBox="0 0 40 40" fill="none" xmlns="http://www.w3.org/2000/svg">
<path d="M17.4375 33.625C15.875 33.8125 14.25 33.6875 12.75 33.25C11.25 32.8125 9.875 32.125 8.625 31.25C7.4375 30.3125 6.4375 29.1875 5.6875 27.9375C4.9375 26.6875 4.5 25.25 4.375 23.875C4.75 25.25 5.4375 26.5 6.3125 27.5C7.1875 28.5625 8.25 29.375 9.4375 29.9375C10.625 30.5 11.875 30.875 13.125 31C14.375 31.125 15.625 30.9375 16.8125 30.5625C17.625 30.3125 18.5 30.75 18.75 31.625C19 32.4375 18.5625 33.3125 17.6875 33.5625C17.625 33.5625 17.5 33.625 17.4375 33.625Z" fill="#48B774"/>
<path d="M35.25 19.7502C35.75 21.2502 36 22.8752 35.875 24.4377C35.75 26.0002 35.3125 27.5002 34.625 28.8127C33.25 31.5002 30.8125 33.5002 28.125 34.3752C30.625 33.0002 32.4375 30.7502 33.1875 28.2502C33.5625 27.0002 33.6875 25.6877 33.5625 24.4377C33.4375 23.1877 33.0625 22.0627 32.4375 20.9377C32 20.1877 32.25 19.2502 33 18.8127C33.75 18.3752 34.6875 18.6252 35.125 19.3752C35.1875 19.4377 35.1875 19.5627 35.25 19.6252V19.7502Z" fill="#48B774"/>
<path d="M20.8127 5.12496C22.3127 4.74996 23.9377 4.62496 25.5002 4.81246C27.0627 4.99996 28.5627 5.49996 29.8752 6.18746C31.1877 6.93746 32.3752 7.87496 33.2502 9.06246C34.1252 10.1875 34.8127 11.5625 35.1252 12.875C34.5627 11.625 33.6877 10.4375 32.6877 9.56246C31.6877 8.68746 30.5002 7.99996 29.2502 7.62496C28.0002 7.18746 26.6877 7.06246 25.4377 7.12496C24.1877 7.18746 23.0002 7.56246 21.8752 8.06246C21.0627 8.43746 20.1252 8.12496 19.7502 7.31246C19.3752 6.56246 19.6877 5.62496 20.5002 5.24996C20.5627 5.18746 20.6877 5.18746 20.7502 5.12496H20.8127Z" fill="#48B774"/>
<path d="M9.37507 19.0625C8.68757 17.625 8.31257 16 8.31257 14.4375C8.25007 12.875 8.56257 11.3125 9.12507 9.9375C10.2501 7.125 12.4376 4.9375 15.0001 3.75C12.6876 5.375 11.1251 7.8125 10.6251 10.375C10.3751 11.6875 10.3751 12.9375 10.6251 14.1875C10.8751 15.4375 11.3751 16.5 12.1251 17.5625C12.6251 18.25 12.5001 19.25 11.7501 19.75C11.0001 20.25 10.0626 20.125 9.56257 19.375C9.50007 19.3125 9.43757 19.1875 9.43757 19.125L9.37507 19.0625Z" fill="#48B774"/>
<path d="M19.6251 26.1876C18.5001 23.3126 11.5001 21.6876 9.87513 27.2501C8.06263 33.4376 19.8126 37.9376 20.6876 38.7501C21.4376 38.0001 32.2501 31.4376 29.4376 25.6876C26.8751 20.3751 20.0626 23.3751 19.6251 26.1876Z" fill="#48B774"/>
<path d="M38.25 15.5627C36.1875 12.6252 32.4375 15.0627 32.5 16.7502C31.5625 15.1877 27.25 14.8752 26.8125 18.3127C26.3125 22.1252 33.75 23.6877 34.375 24.0627C34.75 23.5627 40.5 18.6877 38.25 15.5627Z" fill="#48B774"/>
<path d="M23.0002 4.00006C23.2502 2.37506 20.3752 -0.0624393 18.1877 2.12506C15.6877 4.56256 20.0002 9.50006 20.1877 10.1251C20.7502 9.93756 27.5002 9.56256 27.6877 6.18756C27.8752 3.06256 23.9377 2.81256 23.0002 4.00006Z" fill="#48B774"/>
<path d="M15.9376 16.1875C15.6876 11.8125 10.1251 12.0625 9.06255 13.875C9.12505 11.625 4.75005 8.62505 2.06255 12C-0.999949 15.75 5.81255 22 6.18755 22.8125C6.87505 22.4375 16.1876 20.875 15.9376 16.1875Z" fill="#48B774"/>
</svg>
