<svg width="30" height="30" viewBox="0 0 30 30" fill="none" xmlns="http://www.w3.org/2000/svg">
<path d="M19.9997 26.25V23.75C19.9997 22.4239 19.4729 21.1521 18.5352 20.2145C17.5975 19.2768 16.3258 18.75 14.9997 18.75H6.24968C4.9236 18.75 3.65183 19.2768 2.71415 20.2145C1.77646 21.1521 1.24968 22.4239 1.24968 23.75V26.25" stroke="#48B774" stroke-width="2" stroke-linecap="round" stroke-linejoin="round"/>
<path d="M10.625 13.75C13.3864 13.75 15.625 11.5114 15.625 8.75C15.625 5.98858 13.3864 3.75 10.625 3.75C7.86358 3.75 5.625 5.98858 5.625 8.75C5.625 11.5114 7.86358 13.75 10.625 13.75Z" stroke="#48B774" stroke-width="2" stroke-linecap="round" stroke-linejoin="round"/>
<path d="M21.2503 13.75L23.7503 16.25L28.7503 11.25" stroke="#48B774" stroke-width="2" stroke-linecap="round" stroke-linejoin="round"/>
</svg>
